<svg xmlns="http://www.w3.org/2000/svg" width="512" height="512" viewBox="0 0 512 512"><path d="M48.45 464.828c40.024-.315 45.01-9.955 58.053-50.132 24.057-63.408 132.42 16.59 65.27 44.374-67.15 27.782-163.345 6.073-123.322 5.758z"/><path d="M458.857 46.902c-19.417-15.647-51.592-7.938-71.864 17.22L181.645 355.848c-20.272 25.153-20.17 20.346-.754 35.99 19.418 15.65 14.74 16.77 35.012-8.387l241.406-262.67c20.273-25.155 20.967-58.233 1.55-73.88zm-52.792 34.923s-3-3.5-13-11.5c15-24.5 44.5-20 44.5-20-28 16.5-31.5 31.5-31.5 31.5z"/></svg>