<svg xmlns="http://www.w3.org/2000/svg" width="807" height="320"><g fill="#fff"><path class="ps07 ps10" d="M0 20.427h156.944V0H0zM0 63.252h156.944V42.91H0zM44.814 85.66h67.307v20.426H44.815zM44.814 128.493h67.307v20.342H44.815zM44.814 171.213h67.307v20.437H44.815zM44.814 214.01h67.307v20.502H44.815zM0 277.26h156.944v-20.426H0zM0 319.99h156.944v-20.34H0z"/><path class="ps07" d="M179.274 42.91h241.89c2.065 3.684 6.044 15.468 6.968 20.332H179.274V42.91M224.204 85.66h67.173v20.426h-67.173zM358.615 85.662h71.714c.236 4.72-1.734 15.82-3.057 20.427h-68.658V85.66M224.206 171.217H396.95c5.38 3.73 14.26 14.42 18.63 20.437H224.205v-20.437M224.204 214.01h67.173v20.502h-67.173zM358.615 214.004h68.25c1.484 3.17 3.673 16.05 3.892 20.494h-72.142v-20.494M179.274 256.834h248.648c-.352 5.13-4.198 16.562-6.282 20.417H179.274v-20.416M179.274 299.657h224.813c-19.922 16.705-37.513 20.34-68.373 20.34h-156.44v-20.34M448.333.01h128.16l6.768 20.416H448.334zM448.333 42.91h142.343l6.72 20.332H448.333zM493.125 85.662h111.78l6.757 20.427H493.125zM636.26 128.496h125.875v20.332h-67.222v-17.962l-6.187 17.962H629.54zM625.83 148.827h-59.273L560.39 130.8v18.027h-67.27v-20.332h125.97zM493.126 171.213h67.26v20.437h-67.26zM493.126 214.01h67.26v20.502h-67.26zM448.33 256.834h112.056v20.427H448.33zM448.33 299.66h112.056V320H448.33zM678.95.01h128.007v20.416h-134.86zM664.714 42.91h142.248v20.332H657.947zM650.474 85.662H762.13v20.427H643.706zM694.913 171.213h67.222v20.437h-67.222zM694.913 214.01h67.222v20.502h-67.222zM694.913 256.834h112.083v20.427H694.913zM694.913 299.66h112.083V320H694.913zM574.145 171.217H681.23l-6.92 20.437h-93.207zM588.645 214.004h78.072l-6.94 20.494h-64.203zM603.12 256.834h49.08l-6.92 20.417h-35.192zM617.65 299.657h20.124l-6.987 20.34h-6.216zM224.206 148.863H396.95c5.608-3.884 15.945-14.65 20.105-20.37h-192.85v20.37M179.274 20.43h224.813C384.165 3.732 366.574.087 335.714.087h-156.44v20.34"/></g></svg>