<svg xmlns="http://www.w3.org/2000/svg" width="512" height="512" viewBox="0 0 512 512"><path d="M384 192c0 64-64 127-64 192H192c0-63-64-128-64-192 0-70.688 57.313-128 128-128s128 57.313 128 128zm-80 256h-96c-8.844 0-16 7.156-16 16s7.156 16 16 16h2.938c6.594 18.625 24.188 32 45.063 32s38.47-13.375 45.064-32H304c8.844 0 16-7.156 16-16s-7.156-16-16-16zm0-48h-96c-8.844 0-16 7.156-16 16s7.156 16 16 16h96c8.844 0 16-7.156 16-16s-7.156-16-16-16zM81.72 109.875l28.718 16.563c4.438-9.813 9.844-19 16.094-27.656L97.72 82.125l-16 27.75zM272 33.625V0h-32v33.625c5.344-.562 10.5-1.625 16-1.625s10.656 1.063 16 1.625zm-81.562 12.813l-16.563-28.72-27.75 16 16.656 28.814c8.658-6.25 17.845-11.657 27.658-16.094zm239.843 63.437l-16-27.75L385.47 98.78c6.25 8.657 11.688 17.845 16.125 27.657l28.688-16.562zM365.845 33.72l-27.688-16-16.563 28.718c9.78 4.438 19 9.844 27.625 16.063l16.626-28.78zM96 192c0-5.5 1.063-10.656 1.625-16H64v32h33.688C97.063 202.688 96 197.438 96 192zm318.375-16c.563 5.344 1.625 10.5 1.625 16 0 5.438-1.063 10.688-1.688 16H448v-32h-33.625zm-26.28 110.72l26.187 15.124 16-27.72-29.063-16.75c-4.032 9.94-8.407 19.69-13.126 29.345zM81.718 274.124l16 27.72 25.968-14.97c-4.688-9.688-9.063-19.5-13.03-29.438l-28.94 16.688z"/></svg>