<svg xmlns="http://www.w3.org/2000/svg" width="512" height="512" viewBox="0 0 512 512"><path d="M501.255 414.85L379.817 313.63c-17.188 26.438-39.75 49-66.156 66.188l101.19 121.438c11.25 13.5 30.655 14.406 43.093 1.97l45.28-45.282c12.438-12.44 11.532-31.845-1.968-43.095zM384.005 192.004c0-106.03-85.97-192-192-192s-192 85.97-192 192c0 106.032 85.97 192 192 192s192-85.968 192-192zm-192 144c-79.407 0-144-64.593-144-144 0-79.405 64.593-144 144-144 79.406 0 144 64.595 144 144 0 79.407-64.594 144-144 144z"/></svg>