<svg xmlns="http://www.w3.org/2000/svg" width="512" height="512" viewBox="0 0 512 512"><path d="M409.188 363.906c11.438-.53 22.75-5.063 31.438-13.75 18.75-18.75 18.5-48.906-.188-67.656L180.218 22.297s-3.5-3.984-5.405-5.89c-21.875-21.876-57.344-21.876-79.22 0L16.407 95.593c-21.875 21.875-21.875 57.36 0 79.203 1.906 1.938 3.813 3.78 5.906 5.375l260.25 260.203c18.688 18.72 48.875 18.97 67.563.313 8.75-8.75 13.25-20 13.813-31.53 11.5-.564 22.75-5.064 31.438-13.72 8.75-8.782 13.25-20 13.812-31.532zm-104.313 54.156L89.938 203.094l22.625-22.64L327.5 395.405c6.25 6.25 6.25 16.375 0 22.656-6.25 6.25-16.375 6.22-22.625 0zm45.25-45.28L135.188 157.827l22.625-22.64L372.75 350.155c6.25 6.188 6.25 16.375 0 22.656-6.25 6.22-16.375 6.157-22.625-.03zm45.25-45.25L180.438 112.56l22.625-22.625 214.938 215c6.314 6.188 6.25 16.344 0 22.594s-16.312 6.22-22.625 0zm-45.562 151.53c8.375-3.875 16.22-9.03 22.938-15.75 7.876-7.875 13.907-17.22 17.876-27.47 10.188-3.937 19.53-9.968 27.406-17.812 7.844-7.875 13.875-17.22 17.813-27.438 10.22-3.938 19.563-9.97 27.406-17.813 6.876-6.876 11.97-14.782 15.782-23.157L512 512l-162.187-32.938z"/></svg>