<svg xmlns="http://www.w3.org/2000/svg" width="512" height="501.54" viewBox="0 0 512 501.54"><g fill="#FF0"><path d="M458.318 272.163c-24.53-52.336-96.754-106.152-203.726-106.152-106.82 0-179.116 53.817-203.69 106.065h-.187C22.747 272.075 0 294.812 0 322.79c0 13.445 5.328 25.625 13.9 34.695l36.058 98.436s20.422 45.62 45.62 45.62H415.68c25.198 0 45.62-45.62 45.62-45.62l35.62-97.233C506.193 349.493 512 336.84 512 322.79c0-28.957-24.244-52.39-53.682-50.627zM444.4 449.006c-7.155 15.664-21.393 34.285-28.718 34.285H95.577c-6.61 0-20.743-16.927-28.726-34.302l-36.396-99.363h450.352l-36.406 99.38zm48.05-117.627H19.53c-.802-2.728-1.283-5.597-1.283-8.59 0-17.91 14.568-32.47 32.468-32.47 1.337 0 2.61.215 4.624.5l7.11 1.016 2.654-6.684c19.923-50.144 91.407-100.895 189.488-100.895 98.357 0 169.832 50.91 189.596 101.2l2.823 7.18 7.558-1.603c20.6-4.384 39.186 11.654 39.186 31.754-.002 3.004-.52 5.853-1.303 8.59z"/><path d="M257.06 242.422c-6.04 0-10.94 9.91-10.94 22.114 0 12.225 4.9 22.133 10.94 22.133 6.05 0 10.95-9.91 10.95-22.134 0-12.205-4.9-22.114-10.95-22.114zM314.404 230.66c-4.276 4.277-.74 14.738 7.904 23.38 8.642 8.644 19.11 12.19 23.387 7.913 4.277-4.295.74-14.755-7.902-23.398s-19.11-12.172-23.39-7.894zM176.328 238.554c-8.643 8.643-12.18 19.103-7.903 23.397 4.276 4.277 14.746.732 23.388-7.91 8.643-8.644 12.18-19.104 7.903-23.38-4.277-4.277-14.746-.748-23.388 7.894zM251.758 79.37c8.314 6.468 11.69 9.605 11.69 14.79 0 13.42-14.603 25.25-20.216 28.672l9.408 15.646c1.185-.73 29.055-17.802 29.055-44.318 0-14.613-10.39-22.703-18.736-29.19-8.448-6.576-15.736-12.242-16.645-23.967-1.497-19.477 15.95-22.454 19.468-22.845l-.963-9.088.9 9.088L263.92 0c-13.41 1.337-38.143 11.904-35.8 42.394 1.524 19.78 14.31 29.723 23.638 36.976zM306.5 79.37c8.305 6.468 11.69 9.605 11.69 14.79 0 13.42-14.612 25.25-20.216 28.672l9.408 15.646c1.186-.73 29.057-17.802 29.057-44.318 0-14.613-10.39-22.703-18.738-29.19-8.447-6.576-15.744-12.242-16.644-23.967-1.498-19.477 15.957-22.454 19.467-22.845l-.963-9.088.9 9.088L318.664 0c-13.41 1.337-38.145 11.904-35.8 42.394 1.523 19.78 14.3 29.723 23.637 36.976zM197.016 79.37c8.314 6.468 11.69 9.605 11.69 14.79 0 13.42-14.604 25.25-20.216 28.672l9.408 15.646c1.185-.73 29.056-17.802 29.056-44.318 0-14.613-10.39-22.703-18.737-29.19-8.447-6.576-15.735-12.242-16.644-23.967-1.497-19.477 15.948-22.454 19.468-22.845l-.962-9.088.9 9.088L209.178 0c-13.41 1.337-38.143 11.904-35.8 42.394 1.524 19.78 14.31 29.723 23.638 36.976z"/></g></svg>