<svg xmlns="http://www.w3.org/2000/svg" width="29.938" height="29.938" viewBox="0 0 29.938 29.938"><path d="M7.13 15.683h1.426v1.427h1.426v1.426h-7.13V17.11H4.28v-2.853H7.13v1.426H7.13zm18.534 12.83h1.424v-1.426h-1.424v1.426zm-17.11-12.83h1.427v-1.426H8.556v1.426zm19.958 12.83h1.427v-1.426H28.51v1.426zm-17.104 1.425h2.85v-1.426h-2.85v1.426zm12.83 0v-1.426H22.81v1.426h1.427zm-5.703 0h1.426v-2.852h-1.425v2.852zM7.13 11.406v1.426h4.276v-1.426H7.13zM5.704 12.83v-1.425H2.852v2.852h1.426V12.83h1.427zM9.98 9.98H.003V0h9.98v9.98zM8.556 1.426h-7.13v7.127h7.13V1.427zm-5.703 25.66h4.276V22.81H2.852v4.277zm14.256-1.427v1.427h1.428V25.66h-1.428zM7.128 2.853H2.854v4.275H7.13V2.853zM29.94 0v9.98h-9.98V0h9.98zm-1.426 1.427h-7.127v7.127h7.127V1.427zM0 19.957h9.98v9.98H0v-9.98zm1.427 8.556h7.13v-7.13h-7.13v7.13zm0-17.107H0v7.13h1.427v-7.13zm18.532 7.127v1.424h1.425v-1.424H19.96zm-4.278 5.703V22.81h-1.425v1.427h-2.85v2.853h2.85v1.426h1.425v-2.853h1.427v-1.426H15.68zM11.408 5.704h2.85V4.276h-2.85v1.428zM22.81 17.11h2.855v1.425h1.425V14.26h-1.425v-2.854h-1.428v4.277h-4.274v1.427h1.426v1.426h1.425V17.11h-.004zm1.427 4.274H22.81v-1.427h-1.426v2.853h-4.276v1.427h2.854v2.853h1.426v1.426h1.426v-2.853h5.7v-1.426H24.24v-2.853h-.003zm0 0h1.428v-2.85h-1.428v2.85zm-11.405 0v-1.427h1.424v-1.424h1.425v-1.426h1.428v-2.853h4.276V11.4h-1.426v1.427h-1.426V7.125h-1.426V4.272h1.426V0h-1.426v2.852H15.68V0h-4.276v2.852h1.426V1.426h1.424v2.85h1.426v4.277h1.426V9.98H15.68v2.85h-1.426V9.98H12.83V8.553h-1.426v2.852h1.426v1.426h-1.426v4.278h1.426v-2.853h1.424v2.853H12.83v1.426h-1.426v4.274h2.85v-1.426h-1.422zm15.68 1.426v-1.426h-2.85v1.426h2.85zM27.086 2.853H22.81v4.275h4.276V2.853zm-11.404 18.53h2.854v-1.426h-1.428v-1.424H15.68v2.85zm2.853-2.85v-1.426h-1.428v1.426h1.428zm8.55-5.702h2.854v-1.425h-2.854v1.426zm1.427 11.406h1.427V22.81H28.51v1.426zm0-8.553h1.427v-1.426H28.51v1.426zm-12.83-7.13h-1.425V9.98h1.425V8.554z"/></svg>