<?xml version="1.0" encoding="utf-8"?>
<!-- Generator: Adobe Illustrator 19.2.0, SVG Export Plug-In . SVG Version: 6.00 Build 0)  -->
<svg version="1.1" id="Layer_1" xmlns="http://www.w3.org/2000/svg" xmlns:xlink="http://www.w3.org/1999/xlink" x="0px" y="0px"
	 viewBox="0 0 512 512" style="enable-background:new 0 0 512 512;" xml:space="preserve">
<style type="text/css">
	.st0{display:none;}
	.st1{display:inline;fill:#FFFFFF;}
	.st2{clip-path:url(#SVGID_2_);}
	.st3{clip-path:url(#SVGID_4_);fill:#FFFFFF;}
</style>
<g class="st0">
	<path class="st1" d="M48.5,464.8c40-0.3,45-10,58.1-50.1c24.1-63.4,132.4,16.6,65.3,44.4C104.6,486.9,8.4,465.1,48.5,464.8z"/>
	<path class="st1" d="M458.9,46.9C439.4,31.3,407.3,39,387,64.1L181.6,355.8c-20.3,25.2-20.2,20.3-0.8,36
		c19.4,15.6,14.7,16.8,35-8.4l241.4-262.7C477.6,95.6,478.3,62.5,458.9,46.9z M406.1,81.8c0,0-3-3.5-13-11.5
		c15-24.5,44.5-20,44.5-20C409.6,66.8,406.1,81.8,406.1,81.8z"/>
</g>
<g>
	<defs>
		<path id="SVGID_1_" d="M368.7,200.7c0,56-56,111-56,167.9H200.8c0-55.1-56-111.9-56-167.9c0-61.8,50.1-111.9,111.9-111.9
			S368.7,138.9,368.7,200.7z M298.7,424.6h-83.9c-7.7,0-14,6.3-14,14s6.3,14,14,14h2.6c5.8,16.3,21.1,28,39.4,28s33.6-11.7,39.4-28
			h2.6c7.7,0,14-6.3,14-14S306.5,424.6,298.7,424.6z M298.7,382.6h-83.9c-7.7,0-14,6.3-14,14s6.3,14,14,14h83.9c7.7,0,14-6.3,14-14
			S306.5,382.6,298.7,382.6z M104.4,128.9l25.1,14.5c3.9-8.6,8.6-16.6,14.1-24.2l-25.2-14.6L104.4,128.9z M270.8,62.3V32.9h-28v29.4
			c4.7-0.5,9.2-1.4,14-1.4C261.6,60.9,266.1,61.8,270.8,62.3z M199.5,73.5L185,48.4l-24.3,14l14.6,25.2
			C182.8,82.1,190.9,77.4,199.5,73.5z M409.1,128.9l-14-24.3L370,119.3c5.5,7.6,10.2,15.6,14.1,24.2L409.1,128.9z M352.8,62.4
			l-24.2-14l-14.5,25.1c8.6,3.9,16.6,8.6,24.2,14L352.8,62.4z M116.9,200.7c0-4.8,0.9-9.3,1.4-14H88.9v28h29.5
			C117.8,210.1,116.9,205.5,116.9,200.7z M395.2,186.8c0.5,4.7,1.4,9.2,1.4,14c0,4.8-0.9,9.3-1.5,14h29.5v-28H395.2z M372.3,283.6
			l22.9,13.2l14-24.2l-25.4-14.6C380.2,266.6,376.4,275.1,372.3,283.6z M104.4,272.5l14,24.2l22.7-13.1c-4.1-8.5-7.9-17-11.4-25.7
			L104.4,272.5z"/>
	</defs>
	<clipPath id="SVGID_2_">
		<use xlink:href="#SVGID_1_"  style="overflow:visible;"/>
	</clipPath>
	<g class="st2">
		<defs>
			<rect id="SVGID_3_" x="-783.1" y="-630.8" width="5556.5" height="5880.7"/>
		</defs>
		<clipPath id="SVGID_4_">
			<use xlink:href="#SVGID_3_"  style="overflow:visible;"/>
		</clipPath>
		<rect x="69.6" y="13.6" class="st3" width="374.3" height="486.2"/>
	</g>
</g>
</svg>
