<?xml version="1.0" encoding="utf-8"?>
<!-- Generator: Adobe Illustrator 19.2.0, SVG Export Plug-In . SVG Version: 6.00 Build 0)  -->
<svg version="1.1" id="Layer_1" xmlns="http://www.w3.org/2000/svg" xmlns:xlink="http://www.w3.org/1999/xlink" x="0px" y="0px"
	 viewBox="0 0 512 512" style="enable-background:new 0 0 512 512;" xml:space="preserve">
<style type="text/css">
	.st0{fill:#FFFFFF;}
</style>
<path class="st0" d="M409.2,363.9c11.4-0.5,22.8-5.1,31.4-13.8c18.8-18.8,18.5-48.9-0.2-67.7L180.2,22.3c0,0-3.5-4-5.4-5.9
	c-21.9-21.9-57.3-21.9-79.2,0L16.4,95.6c-21.9,21.9-21.9,57.4,0,79.2c1.9,1.9,3.8,3.8,5.9,5.4l260.2,260.2
	c18.7,18.7,48.9,19,67.6,0.3c8.8-8.8,13.2-20,13.8-31.5c11.5-0.6,22.8-5.1,31.4-13.7C404.1,386.7,408.6,375.4,409.2,363.9z
	 M304.9,418.1l-214.9-215l22.6-22.6l214.9,215c6.2,6.2,6.2,16.4,0,22.7C321.2,424.3,311.1,424.3,304.9,418.1z M350.1,372.8
	l-214.9-215l22.6-22.6l214.9,215c6.2,6.2,6.2,16.4,0,22.7C366.5,379,356.4,379,350.1,372.8z M395.4,327.5l-214.9-215l22.6-22.6
	l214.9,215c6.3,6.2,6.2,16.3,0,22.6S401.7,333.8,395.4,327.5z M349.8,479.1c8.4-3.9,16.2-9,22.9-15.8c7.9-7.9,13.9-17.2,17.9-27.5
	c10.2-3.9,19.5-10,27.4-17.8c7.8-7.9,13.9-17.2,17.8-27.4c10.2-3.9,19.6-10,27.4-17.8c6.9-6.9,12-14.8,15.8-23.2L512,512
	L349.8,479.1z"/>
</svg>
