<?xml version="1.0" encoding="UTF-8" standalone="no"?>
<svg width="73px" height="53px" viewBox="0 0 73 53" version="1.1" xmlns="http://www.w3.org/2000/svg" xmlns:xlink="http://www.w3.org/1999/xlink">
    <!-- Generator: Sketch 3.7 (28169) - http://www.bohemiancoding.com/sketch -->
    <title>Slice 1</title>
    <desc>Created with Sketch.</desc>
    <defs></defs>
    <g id="Page-1" stroke="none" stroke-width="1" fill="none" fill-rule="evenodd">
        <g id="twitter_alt" fill="#FFFFFF">
            <path d="M64.7291,23.20825 C68.8292667,22.8694375 71.6097556,21.0023125 72.6804222,18.4689375 C71.2009556,19.3789375 66.6100667,20.371 64.0745333,19.4260625 C63.9504333,18.8296875 63.8117333,18.2625625 63.6754667,17.7506875 C61.7434,10.6445625 55.1287889,4.9196875 48.1978444,5.611125 C48.7583222,5.3844375 49.3269111,5.1731875 49.8946889,4.983875 C50.6571333,4.7100625 55.1336556,3.9804375 54.4288,2.3976875 C53.8342556,1.005875 48.3657444,3.449875 47.3364444,3.7691875 C48.6950556,3.2573125 50.9434556,2.3765625 51.1835444,0.8116875 C49.1014222,1.0976875 47.0574222,2.0840625 45.4781889,3.518125 C46.0484,2.9030625 46.4807222,2.1539375 46.5723778,1.347125 C41.0178889,4.9018125 37.7734444,12.0680625 35.1478778,19.019 C33.0860333,17.0178125 31.2586,15.4415625 29.6193444,14.5665 C25.0203444,12.0956875 19.5218222,9.5184375 10.8899778,6.30825 C10.6247444,9.1690625 12.3021222,12.9731875 17.1355333,15.5025 C16.0883889,15.3619375 14.1733556,15.6755625 12.6419778,16.0428125 C13.2657222,19.3204375 15.3024222,22.020375 20.8171667,23.3260625 C18.2970444,23.492625 16.9944,24.0670625 15.8142333,25.3053125 C16.9619556,27.584375 19.7627222,30.26725 24.8013444,29.716375 C19.1998111,32.1351875 22.5172556,36.6145 27.0757,35.9458125 C19.2995778,43.9911875 7.03963333,43.4005 0,36.671375 C18.3805889,61.7605625 58.3359222,51.50925 64.2902889,27.3430625 C68.7505889,27.38125 71.3737222,25.79525 73,24.04675 C70.4295889,24.483875 66.7049667,24.032125 64.7291,23.20825 L64.7291,23.20825 Z" id="Twitter__x28_alt_x29_"></path>
        </g>
    </g>
</svg>