<?xml version="1.0" encoding="utf-8"?>
<!-- Generator: Adobe Illustrator 19.2.0, SVG Export Plug-In . SVG Version: 6.00 Build 0)  -->
<svg version="1.1" id="Layer_1" xmlns="http://www.w3.org/2000/svg" xmlns:xlink="http://www.w3.org/1999/xlink" x="0px" y="0px"
	 viewBox="0 0 512 512" style="enable-background:new 0 0 512 512;" xml:space="preserve">
<style type="text/css">
	.st0{fill:#FFFFFF;}
</style>
<g>
	<path class="st0" d="M501.3,414.8L379.8,313.6c-17.2,26.4-39.8,49-66.2,66.2l101.2,121.4c11.2,13.5,30.7,14.4,43.1,2l45.3-45.3
		C515.7,445.5,514.8,426.1,501.3,414.8z"/>
	<path class="st0" d="M384,192C384,86,298,0,192,0S0,86,0,192c0,106,86,192,192,192C298,384,384,298,384,192z M192,336
		c-79.4,0-144-64.6-144-144S112.6,48,192,48c79.4,0,144,64.6,144,144C336,271.4,271.4,336,192,336z"/>
</g>
</svg>
