<?xml version="1.0" encoding="utf-8"?>
<!-- Generator: Adobe Illustrator 19.2.0, SVG Export Plug-In . SVG Version: 6.00 Build 0)  -->
<svg version="1.1" id="Layer_1" xmlns="http://www.w3.org/2000/svg" xmlns:xlink="http://www.w3.org/1999/xlink" x="0px" y="0px"
	 viewBox="0 0 512 512" style="enable-background:new 0 0 512 512;" xml:space="preserve">
<style type="text/css">
	.st0{fill:#FFFFFF;}
</style>
<g>
	<path class="st0" d="M48.5,464.8c40-0.3,45-10,58.1-50.1c24.1-63.4,132.4,16.6,65.3,44.4C104.6,486.9,8.4,465.1,48.5,464.8z"/>
	<path class="st0" d="M458.9,46.9C439.4,31.3,407.3,39,387,64.1L181.6,355.8c-20.3,25.2-20.2,20.3-0.8,36
		c19.4,15.6,14.7,16.8,35-8.4l241.4-262.7C477.6,95.6,478.3,62.5,458.9,46.9z M406.1,81.8c0,0-3-3.5-13-11.5
		c15-24.5,44.5-20,44.5-20C409.6,66.8,406.1,81.8,406.1,81.8z"/>
</g>
</svg>
