<?xml version="1.0" encoding="UTF-8"?>
<svg width="414px" height="845px" viewBox="0 0 414 845" version="1.1" xmlns="http://www.w3.org/2000/svg" xmlns:xlink="http://www.w3.org/1999/xlink" style="background: #F2F2F2;">
    <!-- Generator: Sketch 46.2 (44496) - http://www.bohemiancoding.com/sketch -->
    <title>iPhone 7 Plus Copy 9</title>
    <desc>Created with Sketch.</desc>
    <defs>
        <rect id="path-1" x="0" y="795" width="414" height="49.5839118"></rect>
        <filter x="-1.7%" y="-18.2%" width="103.4%" height="128.2%" filterUnits="objectBoundingBox" id="filter-2">
            <feOffset dx="0" dy="-2" in="SourceAlpha" result="shadowOffsetOuter1"></feOffset>
            <feGaussianBlur stdDeviation="2" in="shadowOffsetOuter1" result="shadowBlurOuter1"></feGaussianBlur>
            <feColorMatrix values="0 0 0 0 0   0 0 0 0 0   0 0 0 0 0  0 0 0 0.2 0" type="matrix" in="shadowBlurOuter1"></feColorMatrix>
        </filter>
        <linearGradient x1="32.3222557%" y1="27.6037069%" x2="100%" y2="107.727573%" id="linearGradient-3">
            <stop stop-color="#56AB2F" offset="0%"></stop>
            <stop stop-color="#A8E063" offset="100%"></stop>
        </linearGradient>
        <rect id="path-4" x="-1" y="0" width="416.057323" height="173.650742"></rect>
        <filter x="-1.6%" y="-3.2%" width="103.1%" height="107.5%" filterUnits="objectBoundingBox" id="filter-5">
            <feOffset dx="0" dy="1" in="SourceAlpha" result="shadowOffsetOuter1"></feOffset>
            <feGaussianBlur stdDeviation="2" in="shadowOffsetOuter1" result="shadowBlurOuter1"></feGaussianBlur>
            <feComposite in="shadowBlurOuter1" in2="SourceAlpha" operator="out" result="shadowBlurOuter1"></feComposite>
            <feColorMatrix values="0 0 0 0 0   0 0 0 0 0   0 0 0 0 0  0 0 0 0.1 0" type="matrix" in="shadowBlurOuter1"></feColorMatrix>
        </filter>
        <rect id="path-6" x="19" y="144" width="375.073093" height="56.5872289" rx="4"></rect>
        <filter x="-2.4%" y="-15.9%" width="104.8%" height="131.8%" filterUnits="objectBoundingBox" id="filter-7">
            <feOffset dx="0" dy="0" in="SourceAlpha" result="shadowOffsetOuter1"></feOffset>
            <feGaussianBlur stdDeviation="3" in="shadowOffsetOuter1" result="shadowBlurOuter1"></feGaussianBlur>
            <feColorMatrix values="0 0 0 0 0   0 0 0 0 0   0 0 0 0 0  0 0 0 0.3 0" type="matrix" in="shadowBlurOuter1"></feColorMatrix>
        </filter>
        <rect id="path-8" x="-1" y="354" width="416.090844" height="254"></rect>
        <filter x="-1.6%" y="-2.2%" width="103.1%" height="105.1%" filterUnits="objectBoundingBox" id="filter-9">
            <feOffset dx="0" dy="1" in="SourceAlpha" result="shadowOffsetOuter1"></feOffset>
            <feGaussianBlur stdDeviation="2" in="shadowOffsetOuter1" result="shadowBlurOuter1"></feGaussianBlur>
            <feComposite in="shadowBlurOuter1" in2="SourceAlpha" operator="out" result="shadowBlurOuter1"></feComposite>
            <feColorMatrix values="0 0 0 0 0   0 0 0 0 0   0 0 0 0 0  0 0 0 0.1 0" type="matrix" in="shadowBlurOuter1"></feColorMatrix>
        </filter>
        <rect id="path-10" x="0" y="647" width="415.641324" height="128.46964"></rect>
        <filter x="-1.6%" y="-4.3%" width="103.1%" height="110.1%" filterUnits="objectBoundingBox" id="filter-11">
            <feOffset dx="0" dy="1" in="SourceAlpha" result="shadowOffsetOuter1"></feOffset>
            <feGaussianBlur stdDeviation="2" in="shadowOffsetOuter1" result="shadowBlurOuter1"></feGaussianBlur>
            <feComposite in="shadowBlurOuter1" in2="SourceAlpha" operator="out" result="shadowBlurOuter1"></feComposite>
            <feColorMatrix values="0 0 0 0 0   0 0 0 0 0   0 0 0 0 0  0 0 0 0.1 0" type="matrix" in="shadowBlurOuter1"></feColorMatrix>
        </filter>
        <rect id="path-12" x="0" y="235" width="415.641324" height="80.0500031"></rect>
        <filter x="-1.6%" y="-6.9%" width="103.1%" height="116.2%" filterUnits="objectBoundingBox" id="filter-13">
            <feOffset dx="0" dy="1" in="SourceAlpha" result="shadowOffsetOuter1"></feOffset>
            <feGaussianBlur stdDeviation="2" in="shadowOffsetOuter1" result="shadowBlurOuter1"></feGaussianBlur>
            <feComposite in="shadowBlurOuter1" in2="SourceAlpha" operator="out" result="shadowBlurOuter1"></feComposite>
            <feColorMatrix values="0 0 0 0 0   0 0 0 0 0   0 0 0 0 0  0 0 0 0.1 0" type="matrix" in="shadowBlurOuter1"></feColorMatrix>
        </filter>
    </defs>
    <g id="Page-1" stroke="none" stroke-width="1" fill="none" fill-rule="evenodd">
        <g id="iPhone-7-Plus-Copy-9">
            <g id="Rectangle">
                <use fill="black" fill-opacity="1" filter="url(#filter-2)" xlink:href="#path-1"></use>
                <use fill="#FFFFFF" fill-rule="evenodd" xlink:href="#path-1"></use>
            </g>
            <g id="Rectangle-2">
                <use fill="black" fill-opacity="1" filter="url(#filter-5)" xlink:href="#path-4"></use>
                <use fill="url(#linearGradient-3)" fill-rule="evenodd" xlink:href="#path-4"></use>
                <rect stroke-opacity="0.2" stroke="#979797" stroke-width="1" x="-0.5" y="0.5" width="415.057323" height="172.650742"></rect>
            </g>
            <text id="NET-WORTH" font-family="Futura-Medium, Futura" font-size="9" font-weight="400" fill="#FFFFFF">
                <tspan x="187.632812" y="68">NET WORTH</tspan>
            </text>
            <text id="$755,420" font-family="Futura-Medium, Futura" font-size="34" font-weight="400" fill="#FFFFFF">
                <tspan x="128.617188" y="104">$755,420</tspan>
            </text>
            <text id="+$895" font-family="Futura-Medium, Futura" font-size="12" font-weight="400" fill-opacity="0.9" fill="#FFFFFF">
                <tspan x="299.96875" y="96">+$895</tspan>
            </text>
            <g id="Rectangle">
                <use fill="black" fill-opacity="1" filter="url(#filter-7)" xlink:href="#path-6"></use>
                <use fill="#FFFFFF" fill-rule="evenodd" xlink:href="#path-6"></use>
            </g>
            <g id="Group-4" transform="translate(40.000000, 153.000000)" font-family="Futura-Medium, Futura" font-weight="400">
                <g id="Group-3">
                    <text id="GROSS-INCOME" font-size="8" fill="#000000">
                        <tspan x="8.26953125" y="8">GROSS INCOME</tspan>
                    </text>
                    <text id="$155,525" font-size="18" fill="#81B532">
                        <tspan x="0.103515625" y="33">$155,525</tspan>
                    </text>
                </g>
                <g id="Group-2" transform="translate(131.000000, 0.000000)">
                    <text id="EXPENSES" font-size="8" fill="#000000">
                        <tspan x="17.0429688" y="8">EXPENSES</tspan>
                    </text>
                    <text id="$62,400" font-size="18" fill="#FF5C49">
                        <tspan x="0.7890625" y="33">$62,400</tspan>
                    </text>
                </g>
                <g id="Group-2" transform="translate(267.000000, 0.000000)" fill="#000000">
                    <text id="SAVINGS-RATE" font-size="8">
                        <tspan x="4.34960938" y="8">SAVINGS RATE</tspan>
                    </text>
                    <text id="65.55%" font-size="18">
                        <tspan x="0.51953125" y="33">65.55%</tspan>
                    </text>
                </g>
            </g>
            <g id="Group" transform="translate(6.000000, 3.000000)">
                <text id="100%" font-family="HelveticaNeue, Helvetica Neue" font-size="12" font-weight="normal" fill="#FFFFFF">
                    <tspan x="333.321228" y="13.4148136">100%</tspan>
                </text>
                <text id="9:23-PM" font-family="HelveticaNeue, Helvetica Neue" font-size="12" font-weight="normal" fill="#FFFFFF">
                    <tspan x="188.371471" y="11.8016125">9:23 PM</tspan>
                </text>
                <path d="M98.4874699,10.907061 C99.4645391,10.907061 100.359041,11.2605748 101.050056,11.8466822 L98.4413372,14.455401 L95.8753426,11.8894064 C96.572888,11.2777968 97.486884,10.907061 98.4874699,10.907061 Z M98.4874699,8.92512308 C96.9395535,8.92512308 95.5297909,9.51662944 94.47188,10.4859438 L93.0694291,9.08349287 C94.4868364,7.75600184 96.3922313,6.94318513 98.4874699,6.94318513 C100.559225,6.94318513 102.445368,7.73788397 103.857678,9.03906059 L102.454659,10.4420796 C101.402335,9.49881508 100.011899,8.92512308 98.4874699,8.92512308 Z M98.4874699,4.96124718 C95.8449551,4.96124718 93.4440165,5.99555664 91.6673821,7.6814459 L90.265537,6.27960075 C92.4011916,4.23523336 95.2976622,2.97930924 98.4874699,2.97930924 C101.717914,2.97930924 104.6475,4.26743676 106.79057,6.35803661 L105.388999,7.75960846 C103.604694,6.02760568 101.170613,4.96124718 98.4874699,4.96124718 Z" id="Wifi-Icon" fill="#FFFFFF"></path>
                <text id="AT&amp;T" font-family="HelveticaNeue, Helvetica Neue" font-size="12" font-weight="normal" fill="#FFFFFF">
                    <tspan x="51.5303866" y="12.7797769">AT&amp;T</tspan>
                </text>
                <g id="Battery-Icon" transform="translate(371.961750, 4.059129)">
                    <rect id="Rectangle-58" stroke="#FFFFFF" x="0.5" y="0.5" width="25.0331812" height="10.5703027" rx="3"></rect>
                    <rect id="Rectangle-58" fill="#FFFFFF" x="1.15703027" y="1.15703027" width="23.7191206" height="9.25624219" rx="1"></rect>
                    <path d="M26.6116963,7.95458313 C27.5702116,7.95458313 28.3472417,6.918543 28.3472417,5.64052258 C28.3472417,4.36250217 27.2459555,3.32646204 26.6116963,3.32646204 C26.6153997,3.33221322 26.630236,7.92158758 26.6116963,7.95458313 Z" id="Oval-18" fill="#FFFFFF"></path>
                </g>
                <g id="Signal-Dots" transform="translate(0.000000, 4.961247)">
                    <path d="M3.88351293,7.5974288 C5.89026889,7.5974288 7.51706584,5.97063185 7.51706584,3.96387589 C7.51706584,1.95711994 5.89026889,0.330322991 3.88351293,0.330322991 C1.87675698,0.330322991 0.249960032,1.95711994 0.249960032,3.96387589 C0.249960032,5.97063185 1.87675698,7.5974288 3.88351293,7.5974288 Z" id="Oval-19" fill="#FFFFFF"></path>
                    <path d="M13.1325567,7.5974288 C15.1393126,7.5974288 16.7661096,5.97063185 16.7661096,3.96387589 C16.7661096,1.95711994 15.1393126,0.330322991 13.1325567,0.330322991 C11.1258007,0.330322991 9.49900378,1.95711994 9.49900378,3.96387589 C9.49900378,5.97063185 11.1258007,7.5974288 13.1325567,7.5974288 Z" id="Oval-19-copy" fill="#FFFFFF"></path>
                    <path d="M22.3816004,7.5974288 C24.3883564,7.5974288 26.0151533,5.97063185 26.0151533,3.96387589 C26.0151533,1.95711994 24.3883564,0.330322991 22.3816004,0.330322991 C20.3748445,0.330322991 18.7480475,1.95711994 18.7480475,3.96387589 C18.7480475,5.97063185 20.3748445,7.5974288 22.3816004,7.5974288 Z" id="Oval-19-copy-2" fill="#FFFFFF"></path>
                    <path d="M31.6306442,7.0974288 C33.3612578,7.0974288 34.7641971,5.69448947 34.7641971,3.96387589 C34.7641971,2.23326231 33.3612578,0.830322991 31.6306442,0.830322991 C29.9000306,0.830322991 28.4970913,2.23326231 28.4970913,3.96387589 C28.4970913,5.69448947 29.9000306,7.0974288 31.6306442,7.0974288 Z" id="Oval-19-copy-3" stroke="#FFFFFF"></path>
                    <path d="M40.8796879,7.0974288 C42.6103015,7.0974288 44.0132408,5.69448947 44.0132408,3.96387589 C44.0132408,2.23326231 42.6103015,0.830322991 40.8796879,0.830322991 C39.1490744,0.830322991 37.746135,2.23326231 37.746135,3.96387589 C37.746135,5.69448947 39.1490744,7.0974288 40.8796879,7.0974288 Z" id="Oval-19-copy-4" stroke="#FFFFFF"></path>
                </g>
            </g>
            <g id="Rectangle-2">
                <use fill="black" fill-opacity="1" filter="url(#filter-9)" xlink:href="#path-8"></use>
                <use fill="#FFFFFF" fill-rule="evenodd" xlink:href="#path-8"></use>
                <rect stroke-opacity="0.2" stroke="#979797" stroke-width="1" x="-0.5" y="354.5" width="415.090844" height="253"></rect>
            </g>
            <text id="$135,356" font-family="Futura-Medium, Futura" font-size="18" font-weight="400" fill="#81B532">
                <tspan x="18" y="410">$135,356</tspan>
            </text>
            <text id="FIDELITY" font-family="Futura-Medium, Futura" font-size="8" font-weight="400" fill="#A6A6A6">
                <tspan x="119" y="406">FIDELITY</tspan>
            </text>
            <g id="ic_account_circle_black_24px" transform="translate(18.000000, 35.000000)" fill-rule="nonzero" fill="#FFFFFF">
                <path d="M365,0 C359.48,0 355,4.48 355,10 C355,15.52 359.48,20 365,20 C370.52,20 375,15.52 375,10 C375,4.48 370.52,0 365,0 Z M365,3 C366.66,3 368,4.34 368,6 C368,7.66 366.66,9 365,9 C363.34,9 362,7.66 362,6 C362,4.34 363.34,3 365,3 Z M365,17.2 C362.5,17.2 360.29,15.92 359,13.98 C359.03,11.99 363,10.9 365,10.9 C366.99,10.9 370.97,11.99 371,13.98 C369.71,15.92 367.5,17.2 365,17.2 Z" id="Shape"></path>
                <g id="ic_settings_black_24px">
                    <path d="M17.43,10.98 C17.47,10.66 17.5,10.34 17.5,10 C17.5,9.66 17.47,9.34 17.43,9.02 L19.54,7.37 C19.73,7.22 19.78,6.95 19.66,6.73 L17.66,3.27 C17.54,3.05 17.27,2.97 17.05,3.05 L14.56,4.05 C14.04,3.65 13.48,3.32 12.87,3.07 L12.49,0.42 C12.46,0.18 12.25,0 12,0 L8,0 C7.75,0 7.54,0.18 7.51,0.42 L7.13,3.07 C6.52,3.32 5.96,3.66 5.44,4.05 L2.95,3.05 C2.72,2.96 2.46,3.05 2.34,3.27 L0.34,6.73 C0.21,6.95 0.27,7.22 0.46,7.37 L2.57,9.02 C2.53,9.34 2.5,9.67 2.5,10 C2.5,10.33 2.53,10.66 2.57,10.98 L0.46,12.63 C0.27,12.78 0.22,13.05 0.34,13.27 L2.34,16.73 C2.46,16.95 2.73,17.03 2.95,16.95 L5.44,15.95 C5.96,16.35 6.52,16.68 7.13,16.93 L7.51,19.58 C7.54,19.82 7.75,20 8,20 L12,20 C12.25,20 12.46,19.82 12.49,19.58 L12.87,16.93 C13.48,16.68 14.04,16.34 14.56,15.95 L17.05,16.95 C17.28,17.04 17.54,16.95 17.66,16.73 L19.66,13.27 C19.78,13.05 19.73,12.78 19.54,12.63 L17.43,10.98 Z M10,13.5 C8.07,13.5 6.5,11.93 6.5,10 C6.5,8.07 8.07,6.5 10,6.5 C11.93,6.5 13.5,8.07 13.5,10 C13.5,11.93 11.93,13.5 10,13.5 Z" id="Shape"></path>
                </g>
            </g>
            <g id="ic_refresh_black_24px" transform="translate(381.000000, 333.000000)" fill-rule="nonzero" fill="#666666">
                <path d="M11.3790168,1.95931252 C10.1700793,0.750375009 8.51091676,0 6.66832924,0 C2.9831542,0 0.00666666667,2.98482503 0.00666666667,6.67000008 C0.00666666667,10.3551751 2.9831542,13.3400002 6.66832924,13.3400002 C9.77821678,13.3400002 12.3711793,11.2139376 13.1132168,8.3375001 L11.3790168,8.3375001 C10.6953418,10.2801376 8.84441677,11.6725001 6.66832924,11.6725001 C3.90861671,11.6725001 1.66582919,9.42971261 1.66582919,6.67000008 C1.66582919,3.91028754 3.90861671,1.66750002 6.66832924,1.66750002 C8.05235426,1.66750002 9.28630427,2.24278753 10.1867543,3.15157504 L7.50207925,5.83625007 L13.3383293,5.83625007 L13.3383293,0 L11.3790168,1.95931252 Z" id="Shape"></path>
            </g>
            <g id="ic_refresh_black_24px" transform="translate(381.000000, 626.000000)" fill-rule="nonzero" fill="#666666">
                <path d="M11.3790168,1.95931252 C10.1700793,0.750375009 8.51091676,0 6.66832924,0 C2.9831542,0 0.00666666667,2.98482503 0.00666666667,6.67000008 C0.00666666667,10.3551751 2.9831542,13.3400002 6.66832924,13.3400002 C9.77821678,13.3400002 12.3711793,11.2139376 13.1132168,8.3375001 L11.3790168,8.3375001 C10.6953418,10.2801376 8.84441677,11.6725001 6.66832924,11.6725001 C3.90861671,11.6725001 1.66582919,9.42971261 1.66582919,6.67000008 C1.66582919,3.91028754 3.90861671,1.66750002 6.66832924,1.66750002 C8.05235426,1.66750002 9.28630427,2.24278753 10.1867543,3.15157504 L7.50207925,5.83625007 L13.3383293,5.83625007 L13.3383293,0 L11.3790168,1.95931252 Z" id="Shape"></path>
            </g>
            <text id="TAXABLE" font-family="Futura-Medium, Futura" font-size="12" font-weight="400" fill="#898989">
                <tspan x="18" y="384">TAXABLE</tspan>
            </text>
            <text id="INVESTMENTS" font-family="Futura-Medium, Futura" font-size="12" font-weight="400" fill="#666666">
                <tspan x="18" y="344">INVESTMENTS</tspan>
            </text>
            <g id="Rectangle-2">
                <use fill="black" fill-opacity="1" filter="url(#filter-11)" xlink:href="#path-10"></use>
                <use fill="#FFFFFF" fill-rule="evenodd" xlink:href="#path-10"></use>
                <rect stroke-opacity="0.2" stroke="#979797" stroke-width="1" x="0.5" y="647.5" width="414.641324" height="127.46964"></rect>
            </g>
            <text id="PROPERTY" font-family="Futura-Medium, Futura" font-size="12" font-weight="400" fill="#666666">
                <tspan x="18" y="637">PROPERTY</tspan>
            </text>
            <text id="$75,311" font-family="Futura-Medium, Futura" font-size="18" font-weight="400" fill="#81B532">
                <tspan x="18" y="468">$75,311</tspan>
            </text>
            <text id="FIDELITY" font-family="Futura-Medium, Futura" font-size="8" font-weight="400" fill="#A6A6A6">
                <tspan x="119" y="464">FIDELITY</tspan>
            </text>
            <text id="ROTH-IRA" font-family="Futura-Medium, Futura" font-size="12" font-weight="400" fill="#898989">
                <tspan x="18" y="442">ROTH IRA</tspan>
            </text>
            <text id="$205,359" font-family="Futura-Medium, Futura" font-size="18" font-weight="400" fill="#81B532">
                <tspan x="18" y="526">$205,359</tspan>
            </text>
            <text id="FIDELITY" font-family="Futura-Medium, Futura" font-size="8" font-weight="400" fill="#A6A6A6">
                <tspan x="118" y="522">FIDELITY</tspan>
            </text>
            <text id="401K" font-family="Futura-Medium, Futura" font-size="12" font-weight="400" fill="#898989">
                <tspan x="18" y="500">401K</tspan>
            </text>
            <text id="$25,321" font-family="Futura-Medium, Futura" font-size="18" font-weight="400" fill="#81B532">
                <tspan x="18" y="583">$25,321</tspan>
            </text>
            <text id="FIDELITY" font-family="Futura-Medium, Futura" font-size="8" font-weight="400" fill="#A6A6A6">
                <tspan x="118" y="579">FIDELITY</tspan>
            </text>
            <text id="HSA" font-family="Futura-Medium, Futura" font-size="12" font-weight="400" fill="#898989">
                <tspan x="18" y="557">HSA</tspan>
            </text>
            <text id="$325,300" font-family="Futura-Medium, Futura" font-size="18" font-weight="400" fill="#81B532">
                <tspan x="18" y="703">$325,300</tspan>
            </text>
            <text id="WIG-CREDIT-UNION" font-family="Futura-Medium, Futura" font-size="8" font-weight="400" fill="#A6A6A6">
                <tspan x="115" y="699">WIG CREDIT UNION</tspan>
            </text>
            <text id="HOME" font-family="Futura-Medium, Futura" font-size="12" font-weight="400" fill="#898989">
                <tspan x="18" y="677">HOME</tspan>
            </text>
            <text id="$225,300" font-family="Futura-Medium, Futura" font-size="18" font-weight="400" fill="#FF5C49">
                <tspan x="18" y="760">$225,300</tspan>
            </text>
            <text id="WIG-CREDIT-UNION" font-family="Futura-Medium, Futura" font-size="8" font-weight="400" fill="#A6A6A6">
                <tspan x="115" y="756">WIG CREDIT UNION</tspan>
            </text>
            <text id="MORTGAGE" font-family="Futura-Medium, Futura" font-size="12" font-weight="400" fill="#898989">
                <tspan x="18" y="734">MORTGAGE</tspan>
            </text>
            <text id="+$93" font-family="Futura-Medium, Futura" font-size="12" font-weight="400" fill="#A6A6A6">
                <tspan x="365.375" y="466">+$93</tspan>
            </text>
            <text id="+$354" font-family="Futura-Medium, Futura" font-size="12" font-weight="400" fill="#A6A6A6">
                <tspan x="358.244141" y="524">+$354</tspan>
            </text>
            <text id="+$89" font-family="Futura-Medium, Futura" font-size="12" font-weight="400" fill="#A6A6A6">
                <tspan x="365.375" y="581">+$89</tspan>
            </text>
            <g id="Rectangle-2">
                <use fill="black" fill-opacity="1" filter="url(#filter-13)" xlink:href="#path-12"></use>
                <use fill="#FFFFFF" fill-rule="evenodd" xlink:href="#path-12"></use>
                <rect stroke-opacity="0.2" stroke="#979797" stroke-width="1" x="0.5" y="235.5" width="414.641324" height="79.0500031"></rect>
            </g>
            <text id="$11,450" font-family="Futura-Medium, Futura" font-size="18" font-weight="400" fill="#81B532">
                <tspan x="18" y="291">$11,450</tspan>
            </text>
            <text id="SIMPLE-BANK" font-family="Futura-Medium, Futura" font-size="8" font-weight="400" fill="#A6A6A6">
                <tspan x="103.402344" y="287">SIMPLE BANK</tspan>
            </text>
            <g id="ic_refresh_black_24px" transform="translate(381.000000, 214.000000)" fill-rule="nonzero" fill="#666666">
                <path d="M11.3790168,1.95931252 C10.1700793,0.750375009 8.51091676,0 6.66832924,0 C2.9831542,0 0.00666666667,2.98482503 0.00666666667,6.67000008 C0.00666666667,10.3551751 2.9831542,13.3400002 6.66832924,13.3400002 C9.77821678,13.3400002 12.3711793,11.2139376 13.1132168,8.3375001 L11.3790168,8.3375001 C10.6953418,10.2801376 8.84441677,11.6725001 6.66832924,11.6725001 C3.90861671,11.6725001 1.66582919,9.42971261 1.66582919,6.67000008 C1.66582919,3.91028754 3.90861671,1.66750002 6.66832924,1.66750002 C8.05235426,1.66750002 9.28630427,2.24278753 10.1867543,3.15157504 L7.50207925,5.83625007 L13.3383293,5.83625007 L13.3383293,0 L11.3790168,1.95931252 Z" id="Shape"></path>
            </g>
            <text id="SIMPLE" font-family="Futura-Medium, Futura" font-size="12" font-weight="400" fill="#898989">
                <tspan x="18" y="265">SIMPLE</tspan>
            </text>
            <text id="CHECKING" font-family="Futura-Medium, Futura" font-size="12" font-weight="400" fill="#666666">
                <tspan x="18" y="225">CHECKING</tspan>
            </text>
            <g id="Group-5" transform="translate(371.000000, 808.000000)"></g>
            <g id="Group-6" transform="translate(28.000000, 803.000000)" fill="#81B532">
                <text id="HOME" font-family="Futura-Medium, Futura" font-size="8" font-weight="400">
                    <tspan x="0" y="31">HOME</tspan>
                </text>
                <g id="ic_home_black_24px" transform="translate(1.000000, 0.000000)" fill-rule="nonzero">
                    <polygon id="Shape" points="9.6 20.4 9.6 13.2 14.4 13.2 14.4 20.4 20.4 20.4 20.4 10.8 24 10.8 12 0 0 10.8 3.6 10.8 3.6 20.4"></polygon>
                </g>
            </g>
            <g id="Group-9" transform="translate(134.000000, 804.000000)">
                <text id="BUDGET" font-family="Futura-Medium, Futura" font-size="8" font-weight="400" fill="#A6A6A6">
                    <tspan x="0" y="30">BUDGET</tspan>
                </text>
                <g id="ic_attach_money_black_24px" transform="translate(10.000000, 0.000000)" fill-rule="nonzero" fill="#898989">
                    <path d="M6.3140277,8.54876256 C3.85761112,7.91031068 3.06766217,7.25021635 3.06766217,6.2222006 C3.06766217,5.04268779 4.16060523,4.22027519 5.98939115,4.22027519 C7.91556803,4.22027519 8.62976845,5.14007876 8.69469576,6.49273106 L11.086185,6.49273106 C11.0104365,4.63148149 9.87420857,2.92172898 7.61257391,2.36984684 L7.61257391,0 L4.36620838,0 L4.36620838,2.33738318 C2.26689201,2.79187436 0.578781932,4.15534788 0.578781932,6.24384304 C0.578781932,8.74354449 2.64563465,9.98798461 5.6647546,10.7130063 C8.3700592,11.3622794 8.91112013,12.3145466 8.91112013,13.3209199 C8.91112013,14.067584 8.38088042,15.257918 5.98939115,15.257918 C3.76022015,15.257918 2.88370146,14.2623659 2.76466806,12.9854621 L0.384,12.9854621 C0.513854621,15.355309 2.28853444,16.6863188 4.36620838,17.1299888 L4.36620838,19.4781932 L7.61257391,19.4781932 L7.61257391,17.1516312 C9.72271151,16.7512461 11.4000004,15.5284485 11.4000004,13.3100987 C11.4000004,10.2368726 8.77044429,9.18721445 6.3140277,8.54876256 Z" id="Shape"></path>
                </g>
            </g>
            <g id="Group-7" transform="translate(360.000000, 803.000000)">
                <g id="ic_flag_black_24px" transform="translate(5.000000, 0.000000)" fill-rule="nonzero" fill="#898989">
                    <polygon id="Shape" points="11.025 3.09375 10.59375 0.9375 0.890625 0.9375 0.890625 19.265625 3.046875 19.265625 3.046875 11.71875 9.084375 11.71875 9.515625 13.875 17.0625 13.875 17.0625 3.09375"></polygon>
                </g>
                <text id="GOALS" font-family="Futura-Medium, Futura" font-size="8" font-weight="400" fill="#A6A6A6">
                    <tspan x="0" y="31">GOALS</tspan>
                </text>
            </g>
            <g id="Group-8" transform="translate(254.000000, 805.000000)">
                <g id="ic_show_chart_black_24px" transform="translate(5.000000, 0.000000)" fill-rule="nonzero" fill="#898989">
                    <polygon id="Shape" points="1.725 15.437 8.625 8.5255 13.225 13.1255 23 2.1315 21.3785 0.51 13.225 9.6755 8.625 5.0755 0 13.712"></polygon>
                </g>
                <text id="CHARTS" font-family="Futura-Medium, Futura" font-size="8" font-weight="400" fill="#A6A6A6">
                    <tspan x="0" y="29">CHARTS</tspan>
                </text>
            </g>
        </g>
    </g>
</svg>