<svg id="Layer_1" data-name="Layer 1" xmlns="http://www.w3.org/2000/svg" viewBox="0 0 320 132">
  <defs>
  </defs>
  <path fill="yellow" opacity="0" class="cls-1" d="M0 0h320v132H0z"/>
  <path fill="#fff" class="cls-2" d="M38.58 72.79v13.69h19.87l-2.3 3.86a77.77 77.77 0 0 0-5.5 11.23H25V30.43h25.65a77.77 77.77 0 0 0 5.5 11.23l2.3 3.86H38.58v13.69h39V49l-.76-.75A50.77 50.77 0 0 1 68.71 37q-.79-1.41-1.51-2.85l-1.84-3.69h25.8v71.14h-25.8l1.84-3.69q.72-1.44 1.51-2.85a50.77 50.77 0 0 1 8.1-11.29l.76-.75V72.79z"/>
  <path fill="#fff" class="cls-3" d="M110.37 59.85a14.32 14.32 0 0 1 10.54-4.15q12.11 0 12.29 11.87v21.24h-8.51v-21q0-3.36-1.7-4.76a7.7 7.7 0 0 0-5-1.4 8.47 8.47 0 0 0-7.63 3.91v23.25h-8.51V42.67h8.51zM157 89.41q-8.09 0-13.11-4.37a14.66 14.66 0 0 1-5-11.64v-.9a17.21 17.21 0 0 1 2.19-8.7 15.27 15.27 0 0 1 6.14-6 18.3 18.3 0 0 1 8.82-2.13q7.74 0 12 4.24t4.22 12v2.94h-24.77a9.14 9.14 0 0 0 3.13 6.37 10.28 10.28 0 0 0 6.92 2.34 12.26 12.26 0 0 0 9.52-4.06l4.59 3.76a14.87 14.87 0 0 1-6.07 4.52 21.69 21.69 0 0 1-8.58 1.63zm-1-27.85a7.75 7.75 0 0 0-5.65 2.1 10.14 10.14 0 0 0-2.75 5.86h16.21V69a8.15 8.15 0 0 0-2.28-5.54 7.76 7.76 0 0 0-5.53-1.9zm56 11.33q0 7.54-4 12a13.62 13.62 0 0 1-10.71 4.49q-6.23 0-10-3.51v15.43h-8.51v-45h7.84l.35 3.3q3.75-3.9 10.19-3.9 6.93 0 10.87 4.43T212 72.44zm-8.47-.63a12.11 12.11 0 0 0-2.26-7.72 7.75 7.75 0 0 0-6.46-2.85q-5.22 0-7.49 3.69V79.8q2.31 3.78 7.56 3.78a7.75 7.75 0 0 0 6.36-2.81q2.3-2.77 2.31-8.51zm26.34-23.86v7.9h6.69v5.41h-6.69v18.15a3.6 3.6 0 0 0 .86 2.69 4.4 4.4 0 0 0 3.06.83 15.21 15.21 0 0 0 3-.3v5.65a24.22 24.22 0 0 1-5.6.69q-9.8 0-9.8-9.28V61.71h-6.23V56.3h6.23v-7.9zm13.21-.57a3.63 3.63 0 0 1 1.24-2.83 5.13 5.13 0 0 1 3.55-1.12 5.2 5.2 0 0 1 3.57 1.12 3.61 3.61 0 0 1 1.26 2.81 3.53 3.53 0 0 1-1.26 2.77 5.24 5.24 0 0 1-3.57 1.11 5.18 5.18 0 0 1-3.55-1.11 3.55 3.55 0 0 1-1.24-2.75zm9 41h-8.48V56.3h8.51zm7.7-16.57a16.93 16.93 0 0 1 2.22-8.61 14.84 14.84 0 0 1 6.2-5.89 19.74 19.74 0 0 1 9.17-2.06q7.67 0 12.45 4.24A15.49 15.49 0 0 1 295 71.17v1.71a17.07 17.07 0 0 1-2.15 8.59 14.67 14.67 0 0 1-6.16 5.86 19.89 19.89 0 0 1-9.26 2.07q-8 0-12.83-4.58t-4.81-12.21zm8.51.63q0 5 2.42 7.86a8.35 8.35 0 0 0 6.72 2.84 8.24 8.24 0 0 0 6.71-2.88q2.4-2.88 2.4-8.44a11.61 11.61 0 0 0-2.47-7.81 9.18 9.18 0 0 0-13.32 0q-2.47 2.78-2.47 8.43z"/>
</svg>
