<?xml version="1.0" encoding="utf-8"?>
<!-- Generator: Adobe Illustrator 19.2.0, SVG Export Plug-In . SVG Version: 6.00 Build 0)  -->
<svg version="1.1" id="Layer_1" xmlns="http://www.w3.org/2000/svg" xmlns:xlink="http://www.w3.org/1999/xlink" x="0px" y="0px"
	 viewBox="0 0 512 512" style="enable-background:new 0 0 512 512;" xml:space="preserve">
<style type="text/css">
	.st0{fill:#FFFFFF;}
</style>
<path class="st0" d="M338.4,281.9h-21.8c-2.8-10.9-7.2-21.5-12.9-31l15.5-15.5c4.7-4.7,4.7-12.3,0-17l-25.5-25.5
	c-4.7-4.7-12.3-4.7-17,0l-15.6,15.5c-9.6-5.7-20.1-10-31-12.9v-21.8c0-6.6-5.2-12-11.9-12h-36.1c-6.6,0-11.9,5.4-11.9,12v21.8
	c-10.9,2.8-21.5,7.2-31,12.9l-15.5-15.5c-4.7-4.7-12.3-4.7-17,0l-25.5,25.5c-4.7,4.7-4.7,12.3,0,17l15.5,15.6
	c-5.7,9.6-10,20.1-12.9,31H62c-6.6,0-12,5.2-12,11.9v36.1c0,6.6,5.4,11.9,12,11.9h21.8c2.8,10.9,7.2,21.5,12.9,31l-15.5,15.5
	c-4.7,4.7-4.7,12.3,0,17l25.5,25.5c4.7,4.7,12.3,4.7,17,0l15.6-15.5c9.6,5.7,20.1,10,31,12.9V450c0,6.6,5.2,12,11.9,12h36.1
	c6.6,0,11.9-5.4,11.9-12v-21.8c10.9-2.8,21.5-7.2,31-12.9l15.5,15.5c4.7,4.7,12.3,4.7,17,0l25.5-25.5c4.7-4.7,4.7-12.3,0-17
	l-15.5-15.6c5.7-9.6,10-20.1,12.9-31h21.8c6.6,0,12-5.2,12-11.9v-36.1C350.4,287.1,345,281.9,338.4,281.9z M200.2,371.9
	c-33.2,0-60.1-26.9-60.1-60.1c0-33.2,26.9-60.1,60.1-60.1s60.1,26.9,60.1,60.1C260.3,345,233.4,371.9,200.2,371.9z"/>
<path class="st0" d="M444.2,88.7l-11.8,4.9c-4-5.3-8.7-10-13.9-13.9l4.9-11.9c1.5-3.6-0.2-7.7-3.8-9.2l-19.5-8.1
	c-3.6-1.5-7.7,0.2-9.2,3.8l-4.9,11.9c-6.4-0.9-13.1-0.9-19.7,0l-4.9-11.8c-1.5-3.6-5.5-5.3-9.1-3.8l-19.5,8.1
	c-3.6,1.5-5.2,5.6-3.7,9.2l4.9,11.8c-5.3,4-10,8.7-13.9,13.9l-11.9-4.9c-3.6-1.5-7.7,0.2-9.2,3.8l-8.1,19.5
	c-1.5,3.6,0.2,7.7,3.8,9.2l11.9,4.9c-0.9,6.4-0.9,13.1,0,19.7l-11.8,4.9c-3.6,1.5-5.3,5.5-3.8,9.1l8.1,19.5c1.5,3.6,5.6,5.2,9.2,3.7
	l11.8-4.9c4,5.3,8.7,10,13.9,13.9l-4.9,11.9c-1.5,3.6,0.2,7.7,3.8,9.2l19.5,8.1c3.6,1.5,7.7-0.2,9.2-3.8l4.9-11.9
	c6.4,0.9,13.1,0.9,19.7,0l4.9,11.8c1.5,3.6,5.5,5.3,9.1,3.8l19.5-8.1c3.6-1.5,5.2-5.6,3.7-9.2l-4.9-11.8c5.3-4,10-8.7,13.9-13.9
	l11.9,4.9c3.6,1.5,7.7-0.2,9.2-3.8l8.1-19.5c1.5-3.6-0.2-7.7-3.8-9.2l-11.9-4.9c0.9-6.4,0.9-13.1,0-19.7l11.8-4.9
	c3.6-1.5,5.3-5.5,3.8-9.1l-8.1-19.5C451.9,88.8,447.8,87.2,444.2,88.7z M389.6,168.3c-18,7.4-38.5-1.1-46-19
	c-7.4-17.9,1.1-38.5,19-46c18-7.4,38.5,1.1,46,19C416.1,140.3,407.6,160.9,389.6,168.3z"/>
</svg>
