<?xml version="1.0" encoding="utf-8"?>
<!-- Generator: Adobe Illustrator 16.0.0, SVG Export Plug-In . SVG Version: 6.00 Build 0)  -->
<!DOCTYPE svg PUBLIC "-//W3C//DTD SVG 1.1//EN" "http://www.w3.org/Graphics/SVG/1.1/DTD/svg11.dtd">
<svg version="1.1" id="Layer_1" xmlns="http://www.w3.org/2000/svg" xmlns:xlink="http://www.w3.org/1999/xlink" x="0px" y="0px"
	 width="512px" height="512px" viewBox="0 0 512 512" enable-background="new 0 0 512 512" xml:space="preserve">
<path d="M409.188,363.906c11.438-0.531,22.75-5.063,31.438-13.75c18.75-18.75,18.5-48.906-0.188-67.656L180.219,22.297
	c0,0-3.5-3.984-5.406-5.891c-21.875-21.875-57.344-21.875-79.219,0L16.406,95.594c-21.875,21.875-21.875,57.359,0,79.203
	c1.906,1.938,3.813,3.781,5.906,5.375l260.25,260.203c18.688,18.719,48.875,18.969,67.563,0.313c8.75-8.75,13.25-20,13.813-31.531
	c11.5-0.563,22.75-5.063,31.438-13.719C404.125,386.656,408.625,375.437,409.188,363.906z M304.875,418.062L89.938,203.094
	l22.625-22.641L327.5,395.406c6.25,6.25,6.25,16.375,0,22.656C321.25,424.312,311.125,424.281,304.875,418.062z M350.125,372.781
	L135.188,157.828l22.625-22.641L372.75,350.156c6.25,6.188,6.25,16.375,0,22.656C366.5,379.031,356.375,378.969,350.125,372.781z
	 M395.375,327.531L180.438,112.562l22.625-22.625l214.938,215c6.313,6.188,6.25,16.344,0,22.594S401.688,333.75,395.375,327.531z
	 M349.813,479.062c8.375-3.875,16.219-9.031,22.938-15.75c7.875-7.875,13.906-17.219,17.875-27.469
	c10.188-3.938,19.531-9.969,27.406-17.813c7.844-7.875,13.875-17.219,17.813-27.438c10.219-3.938,19.563-9.969,27.406-17.813
	c6.875-6.875,11.969-14.781,15.781-23.156L512,512L349.813,479.062z"/>
</svg>
